# xmcd CD database file
#
# Track frame offsets:
#	150
#	13827
#	27965
#	41515
#	55290
#	65845
#	75985
#	86237
#	98732
#	109377
#	121137
#	131720
#	143832
#	155359
#	167157
#
# Disc length: 2395 seconds
#
# Revision: 0
# Processed by: cddbd v1.4PL0 Copyright (c) Steve Scherf et al.
# Submitted via: CDex 1.50beta9
#
DISCID=ca09590f
DTITLE=Various Artist - WESTERN LOVE SONGS 4
DYEAR=2002
DGENRE=Country
TTITLE0=WHERE HAVE ALL THE FLOWERS GONE
TTITLE1=THE END OF THE WORLD
TTITLE2=STAND BY ME
TTITLE3=DOWNTOWN
TTITLE4=(AT) THE END (OF A RAINBOW)
TTITLE5=LET ME GO LOVER
TTITLE6=THE RIVER OF NO RETURN
TTITLE7=LITTLE DEVIL
TTITLE8=RUNAWAY
TTITLE9=KIND OF RUSH
TTITLE10=STUPID CUPID
TTITLE11=MR. BASSMAN
TTITLE12=POETRY IN MOTION
TTITLE13=FIRST QUARREL
TTITLE14=HIGH NOON
EXTD=YEAR: 2002
EXTT0=
EXTT1=
EXTT2=
EXTT3=
EXTT4=
EXTT5=
EXTT6=
EXTT7=
EXTT8=
EXTT9=
EXTT10=
EXTT11=
EXTT12=
EXTT13=
EXTT14=
PLAYORDER=
